<svg id="svg" xmlns="http://www.w3.org/2000/svg" xmlns:xlink="http://www.w3.org/1999/xlink" width="400" height="484.2105263157895" viewBox="0, 0, 400,484.2105263157895"><g id="svgg"><path id="path0" d="M58.968 55.885 C 53.886 69.129,57.100 401.401,62.411 411.816 C 74.186 434.908,71.869 434.483,191.259 435.448 C 346.040 436.699,330.827 455.456,330.827 263.364 L 330.827 119.919 344.359 88.240 C 351.801 70.817,357.135 55.339,356.211 53.845 C 352.871 48.439,61.057 50.442,58.968 55.885 M330.629 91.475 L 318.797 119.792 318.797 263.883 L 318.797 407.974 311.040 415.265 L 303.282 422.556 199.157 423.423 C 124.277 424.046,92.627 423.293,86.472 420.743 C 68.953 413.487,69.173 415.886,69.173 231.728 L 69.173 63.158 205.817 63.158 L 342.461 63.158 330.629 91.475 M254.760 86.092 C 248.229 92.623,253.367 96.241,269.173 96.241 L 285.714 96.241 285.714 115.632 L 285.714 135.024 269.953 135.933 C 245.927 137.319,245.048 147.368,268.952 147.368 L 285.714 147.368 285.714 166.760 L 285.714 186.152 269.953 187.061 C 245.927 188.447,245.048 198.496,268.952 198.496 L 285.714 198.496 285.714 217.888 L 285.714 237.280 269.925 238.189 C 258.299 238.858,254.135 240.287,254.135 243.609 C 254.135 246.931,258.299 248.360,269.925 249.029 L 285.714 249.938 285.714 269.330 L 285.714 288.722 268.952 288.722 C 245.048 288.722,245.927 298.771,269.953 300.157 L 285.714 301.066 285.714 320.458 L 285.714 339.850 268.952 339.850 C 245.048 339.850,245.927 349.899,269.953 351.285 L 285.714 352.194 285.714 371.586 L 285.714 390.977 268.952 390.977 C 254.608 390.977,252.337 391.736,253.204 396.241 C 254.054 400.654,257.609 401.504,275.229 401.504 L 296.241 401.504 296.241 243.609 L 296.241 85.714 276.564 84.839 C 265.742 84.358,255.930 84.922,254.760 86.092 " stroke="none" fill="#000000" fill-rule="evenodd"></path></g></svg>