<svg id="svg" xmlns="http://www.w3.org/2000/svg" xmlns:xlink="http://www.w3.org/1999/xlink" width="400" height="484.2105263157895" viewBox="0, 0, 400,484.2105263157895" version="1.1"><g id="svgg"><path id="path0" d="M43.789 53.845 C 42.865 55.339,48.199 70.817,55.641 88.240 L 69.173 119.919 69.173 263.364 C 69.173 455.456,53.960 436.699,208.741 435.448 C 328.131 434.483,325.814 434.908,337.589 411.816 C 342.900 401.401,346.114 69.129,341.032 55.885 C 338.943 50.442,47.129 48.439,43.789 53.845 M330.827 231.728 C 330.827 415.886,331.047 413.487,313.528 420.743 C 307.373 423.293,275.723 424.046,200.843 423.423 L 96.718 422.556 88.960 415.265 L 81.203 407.974 81.203 263.883 L 81.203 119.792 69.371 91.475 L 57.539 63.158 194.183 63.158 L 330.827 63.158 330.827 231.728 M103.688 87.832 C 102.867 89.975,102.547 161.429,102.977 246.617 L 103.759 401.504 124.771 401.504 C 142.391 401.504,145.946 400.654,146.796 396.241 C 147.663 391.736,145.392 390.977,131.048 390.977 L 114.286 390.977 114.286 371.586 L 114.286 352.194 130.047 351.285 C 154.073 349.899,154.952 339.850,131.048 339.850 L 114.286 339.850 114.286 320.458 L 114.286 301.066 130.047 300.157 C 154.073 298.771,154.952 288.722,131.048 288.722 L 114.286 288.722 114.286 269.330 L 114.286 249.938 130.075 249.029 C 141.701 248.360,145.865 246.931,145.865 243.609 C 145.865 240.287,141.701 238.858,130.075 238.189 L 114.286 237.280 114.286 217.888 L 114.286 198.496 131.048 198.496 C 154.952 198.496,154.073 188.447,130.047 187.061 L 114.286 186.152 114.286 166.760 L 114.286 147.368 131.048 147.368 C 154.952 147.368,154.073 137.319,130.047 135.933 L 114.286 135.024 114.286 115.632 L 114.286 96.241 131.048 96.241 C 145.389 96.241,147.665 95.480,146.806 90.977 C 145.517 84.215,106.172 81.345,103.688 87.832 " stroke="none" fill="#000000" fill-rule="evenodd"></path></g></svg>