<svg id="svg" xmlns="http://www.w3.org/2000/svg" xmlns:xlink="http://www.w3.org/1999/xlink" width="400" height="491.2280701754386" viewBox="0, 0, 400,491.2280701754386" version="1.1"><g id="svgg"><path id="path0" d="M175.384 30.961 C 154.623 41.829,147.368 61.208,147.368 105.795 L 147.368 143.436 134.211 144.525 C 122.544 145.491,120.919 146.788,119.874 155.974 C 119.225 161.672,116.068 168.383,112.856 170.886 C 107.427 175.120,107.448 175.773,113.158 180.211 C 121.995 187.080,120.793 191.043,108.145 196.735 C 82.413 208.315,82.456 208.080,82.456 337.020 L 82.456 452.472 92.176 462.201 L 101.895 471.930 162.041 473.045 C 230.074 474.307,235.875 473.473,247.667 460.749 L 256.140 451.607 256.140 336.452 L 256.140 221.297 245.251 208.894 C 239.261 202.072,232.349 196.491,229.891 196.491 C 220.471 196.491,215.970 186.135,223.117 180.909 C 229.278 176.404,229.336 175.630,223.958 169.615 C 220.782 166.064,217.645 159.211,216.987 154.386 C 215.985 147.044,213.644 145.436,202.632 144.525 L 189.474 143.436 189.474 108.990 C 189.474 63.219,183.601 65.397,275.439 77.113 C 359.441 87.829,361.404 87.620,361.404 67.987 C 361.404 58.693,367.454 60.676,277.720 40.564 C 197.189 22.516,192.380 22.064,175.384 30.961 M260.801 51.605 C 332.421 67.525,330.803 69.588,254.334 59.851 C 176.675 49.962,175.439 50.759,175.439 110.755 C 175.439 141.520,174.943 143.860,168.421 143.860 C 159.158 143.860,157.797 76.800,166.711 59.564 C 179.010 35.779,186.685 35.130,260.801 51.605 M203.509 163.158 C 203.509 167.485,197.271 168.421,168.421 168.421 C 139.571 168.421,133.333 167.485,133.333 163.158 C 133.333 158.830,139.571 157.895,168.421 157.895 C 197.271 157.895,203.509 158.830,203.509 163.158 M203.509 190.526 C 203.509 200.015,209.563 207.018,217.767 207.018 C 220.978 207.018,227.767 211.180,232.855 216.268 L 242.105 225.518 242.105 337.122 C 242.105 465.660,243.779 459.649,207.991 459.649 L 189.474 459.649 189.474 326.316 L 189.474 192.982 161.404 192.982 C 138.791 192.982,133.333 191.959,133.333 187.719 C 133.333 183.392,139.571 182.456,168.421 182.456 C 202.695 182.456,203.509 182.643,203.509 190.526 M147.368 333.333 L 147.368 459.649 128.070 459.649 C 93.636 459.649,94.737 463.695,94.737 337.111 L 94.737 228.609 103.821 217.813 C 111.693 208.457,115.202 207.018,130.136 207.018 L 147.368 207.018 147.368 333.333 M175.439 333.333 C 175.439 457.310,175.309 459.649,168.421 459.649 C 161.533 459.649,161.404 457.310,161.404 333.333 C 161.404 209.357,161.533 207.018,168.421 207.018 C 175.309 207.018,175.439 209.357,175.439 333.333 " stroke="none" fill="#000000" fill-rule="evenodd"></path></g></svg>